# xmcd
#
# Track frame offsets:
#	150
#	9067
#	23332
#	34185
#	45677
#	57095
#	63095
#	71005
#	86415
#	98630
#	109400
#	122295
#	141600
#
# Disc length: 2043 seconds
#
# Revision: 1
# Processed by: cddbd v1.5.1PL0 Copyright (c) Steve Scherf et al.
# Submitted via: CDex 1.50Beta5
#
DISCID=9d07f90d
DTITLE=ザ・フォ・ク・クルセダーズ - HARENNCHI
DYEAR=1900
DGENRE=Folk
TTITLE0=そうらん節
TTITLE1=イムジン河
TTITLE2=ドリンキン・グァート
TTITLE3=ディングの歌
TTITLE4=グァンタナメラ
TTITLE5=ラ・バンバ
TTITLE6=ひょうたん島
TTITLE7=帰ってきたヨッパライ
TTITLE8=女の娘は強い
TTITLE9=ヨルダン河
TTITLE10=コキリコの唄
TTITLE11=雨を降らせないで
TTITLE12=イムジン河(スタジオバージョン)
EXTD=
EXTT0=
EXTT1=
EXTT2=
EXTT3=
EXTT4=
EXTT5=
EXTT6=
EXTT7=
EXTT8=
EXTT9=
EXTT10=
EXTT11=
EXTT12=
PLAYORDER=
